<svg width="210" height="236" viewBox="0 0 210 236" fill="none" xmlns="http://www.w3.org/2000/svg">
<g filter="url(#filter0_d_289_258)">
<path d="M59.1055 205.991C74.3585 183.144 106.017 168.526 140.316 184.269C119.996 213.873 83.984 218.509 59.1055 205.991Z" fill="#D8B56E" stroke="black" stroke-width="3" stroke-miterlimit="10"/>
<path d="M51.5023 201.601C28.2229 186.313 14.2346 152.807 29.7083 120.41C60.4938 142.243 63.6587 176.969 51.5023 201.601Z" fill="#D8B56E" stroke="black" stroke-width="3" stroke-miterlimit="10"/>
<path d="M65.4477 186.251C66.1307 182.424 66.5132 178.553 66.568 174.681C77.0071 157.303 95.6054 144.881 117.221 143.166C116.691 152.316 113.6 161.675 109.564 169.221C93.3926 169.833 77.7696 175.872 65.4477 186.251Z" fill="#D8B56E" stroke="black" stroke-width="3" stroke-miterlimit="10"/>
<path d="M65.572 161.37C64.2837 153.804 61.7602 146.452 58.1521 139.597C62.814 132.037 69.3333 124.882 76.8348 120.002C80.9482 128.385 82.8427 137.444 83.0589 145.878C76.4657 150.071 70.5632 155.296 65.5709 161.371L65.572 161.37Z" fill="#D8B56E" stroke="black" stroke-width="3" stroke-miterlimit="10"/>
<path d="M118.925 169.472C122.523 161.777 124.78 153.371 125.508 144.508C135.238 137.276 148.331 132.644 158.14 132.41C157.207 147.975 149.487 163.35 138.084 174.048C131.82 171.597 125.384 170.073 118.925 169.472Z" fill="#D8B56E" stroke="black" stroke-width="3" stroke-miterlimit="10"/>
<path d="M53.2246 131.538C49.4785 126.251 44.957 121.448 39.7124 117.252C43.2733 102.027 52.7452 87.6606 65.7579 79.0722C70.4632 87.6932 73.0018 101.366 71.5945 113.418C64.3183 118.356 58.1341 124.506 53.2246 131.538Z" fill="#D8B56E" stroke="black" stroke-width="3" stroke-miterlimit="10"/>
<path d="M91.318 141.335C90.6249 133.494 88.6522 125.691 85.3153 118.207C93.0273 106.541 104.852 96.4296 120.424 91.0886C123.782 107.149 120.66 122.734 114.503 135.037C106.37 135.795 98.5632 137.95 91.318 141.335Z" fill="#D8B56E" stroke="black" stroke-width="3" stroke-miterlimit="10"/>
<path d="M80.5244 110.149C81.0453 99.9768 79.3837 89.5993 75.3763 79.7411C83.2155 64.7652 98.6153 52.0588 113.51 47.7521C116.296 61.3981 114.307 75.1384 110.001 86.0917C98.1842 91.4887 88.0928 99.8688 80.5262 110.15L80.5244 110.149Z" fill="#D8B56E" stroke="black" stroke-width="3" stroke-miterlimit="10"/>
<path d="M123.893 135.109C128.926 123.565 131.125 110.732 129.933 97.6526C137.265 88.432 148.19 79.8254 161.42 75.4097C165.137 90.4565 161.822 110.131 152.776 124.406C142.247 125.859 132.441 129.585 123.895 135.108L123.893 135.109Z" fill="#D8B56E" stroke="black" stroke-width="3" stroke-miterlimit="10"/>
<path d="M120.286 82.3292C122.887 73.3557 123.933 63.8402 123.049 54.1787C130.613 44.6506 140.945 36.6594 154.596 31.9677C157.313 45.5483 155.449 59.1761 151.069 70.3346C142.286 74.3891 134.598 80.0486 128.135 86.764C127.968 86.0682 127.874 85.3722 127.685 84.6778C127.089 82.4272 124.791 81.0815 122.537 81.6302C121.769 81.8194 121.052 82.1014 120.295 82.3178L120.286 82.3292Z" fill="#D8B56E" stroke="black" stroke-width="3" stroke-miterlimit="10"/>
</g>
<defs>
<filter id="filter0_d_289_258" x="13.6851" y="29.9917" width="150.733" height="192.01" filterUnits="userSpaceOnUse" color-interpolation-filters="sRGB">
<feFlood flood-opacity="0" result="BackgroundImageFix"/>
<feColorMatrix in="SourceAlpha" type="matrix" values="0 0 0 0 0 0 0 0 0 0 0 0 0 0 0 0 0 0 127 0" result="hardAlpha"/>
<feOffset dx="-4" dy="4"/>
<feGaussianBlur stdDeviation="2"/>
<feComposite in2="hardAlpha" operator="out"/>
<feColorMatrix type="matrix" values="0 0 0 0 0 0 0 0 0 0 0 0 0 0 0 0 0 0 0.25 0"/>
<feBlend mode="normal" in2="BackgroundImageFix" result="effect1_dropShadow_289_258"/>
<feBlend mode="normal" in="SourceGraphic" in2="effect1_dropShadow_289_258" result="shape"/>
</filter>
</defs>
</svg>
