<svg width="241" height="220" viewBox="0 0 241 220" fill="none" xmlns="http://www.w3.org/2000/svg">
<g filter="url(#filter0_d_289_279)">
<path d="M205.816 146.362C210.21 173.43 213.503 193.711 234.71 209.857C221.692 210.617 195.165 208.992 168.121 188.597C167.847 188.391 167.581 188.191 167.309 187.983C128.867 158.47 121.885 122.282 147.13 83.3319C147.632 82.5582 147.786 81.5986 147.544 80.7009C147.536 80.6829 146.561 76.7443 146.415 66.9997C146.395 65.7321 145.655 64.5825 144.485 64.0527C143.328 63.5249 141.968 63.7108 141.001 64.5286C140.893 64.6185 129.974 73.8133 120.14 80.1111C119.342 80.6229 118.802 81.4646 118.664 82.4063C118.622 82.7142 113.848 113.289 84.4504 125.107C57.17 136.073 26.3329 120.143 12.1938 103.297C20.5369 101.933 36.4933 98.0848 51.2001 87.5225L53.7452 85.6851C71.0232 73.1955 92.5296 57.647 114.268 70.6444C115.026 71.0982 115.935 71.2262 116.791 71.0043C118.031 70.6804 125.136 68.1313 143.484 49.8277C143.828 49.4858 144.089 49.07 144.255 48.6142C144.363 48.3063 154.884 19.2565 168.403 3.99985L175.838 13.9104C169.998 21.5677 151.225 48.978 157.745 77.2661C158.083 78.7356 159.38 79.7872 160.89 79.8192C162.187 79.8512 193 81.1427 201.417 121.724C203.255 130.589 204.556 138.608 205.816 146.366V146.362Z" fill="#D8B56E" stroke="#1F1F1F" stroke-width="4" stroke-miterlimit="10"/>
</g>
<defs>
<filter id="filter0_d_289_279" x="0.401855" y="0.838867" width="239.818" height="219.161" filterUnits="userSpaceOnUse" color-interpolation-filters="sRGB">
<feFlood flood-opacity="0" result="BackgroundImageFix"/>
<feColorMatrix in="SourceAlpha" type="matrix" values="0 0 0 0 0 0 0 0 0 0 0 0 0 0 0 0 0 0 127 0" result="hardAlpha"/>
<feOffset dx="-4" dy="4"/>
<feGaussianBlur stdDeviation="2"/>
<feComposite in2="hardAlpha" operator="out"/>
<feColorMatrix type="matrix" values="0 0 0 0 0 0 0 0 0 0 0 0 0 0 0 0 0 0 0.25 0"/>
<feBlend mode="normal" in2="BackgroundImageFix" result="effect1_dropShadow_289_279"/>
<feBlend mode="normal" in="SourceGraphic" in2="effect1_dropShadow_289_279" result="shape"/>
</filter>
</defs>
</svg>
