<svg width="32" height="32" viewBox="0 0 408 357" fill="none" xmlns="http://www.w3.org/2000/svg">
<path d="M4 9.77402V204.16L151.556 352.357H404.142V169.519L238.315 4H4V9.77402Z" fill="white"/>
<path d="M4 9.77402V204.16L151.556 352.357H404.142V169.519L238.315 4H4V9.77402Z" stroke="#292929" stroke-width="7.34267" stroke-miterlimit="10"/>
<path d="M37.1647 39.3531H134.07V43.1575H92.0227V180.305H79.2098V43.1575H42.1705L38.7672 51.366H37.1647V39.3531Z" fill="#292929"/>
<path d="M37.1647 39.3531H134.07V43.1576H92.0227V180.305H79.2098V43.1576H42.1705L38.7672 51.366H37.1647V39.3531Z" stroke="#292929" stroke-width="2.09733" stroke-miterlimit="10"/>
<path d="M134.071 107.827V106.026H154.894V169.494H225.569V106.026H238.181V246.978H225.569V173.298H154.894V246.978H142.281V111.23L134.071 107.827Z" fill="#292929"/>
<path d="M134.071 107.827V106.026H154.894V169.494H225.569V106.026H238.181V246.978H225.569V173.298H154.894V246.978H142.281V111.23L134.071 107.827Z" stroke="#292929" stroke-width="2.09733" stroke-miterlimit="10"/>
<path d="M291.035 240.57V313.648H320.869C329.141 313.648 335.984 311.847 341.389 308.243C346.796 304.639 350.832 300.135 353.502 294.728C356.171 289.324 357.507 283.452 357.507 277.11C357.507 270.771 356.205 264.897 353.605 259.492C351.001 254.085 347.062 249.578 341.79 245.974C336.515 242.373 329.943 240.57 322.07 240.57H291.035ZM291.035 236.765H321.669C327.274 236.765 331.945 235.363 335.683 232.562C339.419 229.758 342.22 226.289 344.095 222.149C345.959 218.014 346.827 213.474 346.695 208.536C346.561 203.599 345.46 199.058 343.392 194.921C341.32 190.784 338.252 187.312 334.183 184.511C330.107 181.707 325.072 180.305 319.066 180.305H291.035V236.765ZM270.214 176.5H324.673C331.609 176.5 337.518 177.736 342.392 180.204C347.263 182.676 351.131 185.81 354.003 189.614C356.873 193.419 358.74 197.693 359.609 202.43C360.475 207.169 360.377 211.807 359.31 216.343C358.238 220.882 356.205 225.053 353.203 228.858C350.199 232.662 346.294 235.564 341.491 237.565C349.499 240.237 355.87 244.073 360.612 249.079C365.346 254.085 368.619 259.561 370.423 265.496C372.223 271.439 372.688 277.48 371.822 283.616C370.953 289.757 368.82 295.33 365.417 300.333C362.014 305.339 357.473 309.445 351.801 312.647C346.125 315.852 339.488 317.452 331.881 317.452H278.422V181.707L270.214 178.303V176.5Z" fill="#292929"/>
<path d="M291.035 240.57V313.648H320.869C329.141 313.648 335.984 311.847 341.389 308.243C346.796 304.639 350.832 300.135 353.502 294.728C356.171 289.324 357.507 283.452 357.507 277.11C357.507 270.771 356.205 264.897 353.605 259.492C351.001 254.085 347.062 249.578 341.79 245.974C336.515 242.373 329.943 240.57 322.07 240.57H291.035ZM291.035 236.765H321.669C327.274 236.765 331.945 235.363 335.683 232.562C339.419 229.758 342.22 226.289 344.095 222.149C345.959 218.014 346.827 213.474 346.695 208.536C346.561 203.599 345.46 199.058 343.392 194.921C341.32 190.784 338.252 187.312 334.183 184.511C330.107 181.707 325.072 180.305 319.066 180.305H291.035V236.765ZM270.214 176.5H324.673C331.609 176.5 337.518 177.736 342.392 180.204C347.263 182.676 351.131 185.81 354.003 189.614C356.873 193.419 358.74 197.693 359.609 202.43C360.475 207.169 360.377 211.807 359.31 216.343C358.238 220.882 356.205 225.053 353.203 228.858C350.199 232.662 346.294 235.564 341.491 237.565C349.499 240.237 355.87 244.073 360.612 249.079C365.346 254.085 368.619 259.561 370.423 265.496C372.223 271.439 372.688 277.48 371.822 283.616C370.953 289.757 368.82 295.33 365.417 300.333C362.014 305.339 357.473 309.445 351.801 312.647C346.125 315.852 339.488 317.452 331.881 317.452H278.422V181.707L270.214 178.303V176.5Z" stroke="#292929" stroke-width="2.09733" stroke-miterlimit="10"/>
</svg>
