<svg width="35" height="36" viewBox="0 0 35 36" fill="none" xmlns="http://www.w3.org/2000/svg">
<path d="M15.6695 3.49654C15.7108 1.50129 19.2053 1.50129 19.245 3.49654C19.2641 6.24219 20.3374 9.46342 22.7824 12.0986C24.7385 14.2043 27.5884 15.9328 31.5006 16.7331C31.5815 16.7492 31.6578 16.7681 31.7324 16.791C31.9658 16.8624 32.1722 16.9769 32.3468 17.117L32.4024 17.1642C32.5675 17.3083 32.6977 17.4875 32.7866 17.6842C32.8549 17.8378 32.8898 17.9968 32.8993 18.1638V18.2635C32.8962 18.4306 32.8549 18.5896 32.7866 18.7431C32.7025 18.9398 32.5675 19.1163 32.4024 19.2645L32.3468 19.3103C32.1769 19.4504 31.9658 19.5623 31.7324 19.6363C31.6562 19.6593 31.5815 19.6781 31.5006 19.6943C27.5884 20.4945 24.7369 22.223 22.7824 24.3288C20.3374 26.9626 19.2641 30.1852 19.245 32.9308C19.2037 34.9261 15.7092 34.9261 15.6695 32.9308C15.6504 30.1852 14.5787 26.9639 12.1336 24.3288C10.176 22.223 7.32763 20.4945 3.41391 19.6943C3.33453 19.6781 3.25673 19.6593 3.18211 19.6363C2.94871 19.5649 2.74231 19.4504 2.56766 19.3103L2.51368 19.2645C2.34856 19.119 2.21678 18.9398 2.12786 18.7431C2.06118 18.5896 2.02466 18.4306 2.01514 18.2635V18.1638C2.0199 17.9968 2.06118 17.8378 2.12786 17.6842C2.21201 17.4875 2.34856 17.3124 2.51368 17.1642L2.56766 17.117C2.73914 16.9769 2.94871 16.8651 3.18211 16.791C3.25832 16.7681 3.33453 16.7492 3.41391 16.7331C7.32604 15.9328 10.1776 14.2043 12.1336 12.0986C14.5787 9.46477 15.6504 6.24219 15.6695 3.49654Z" fill="#BC4749" stroke="#1F1F1F" stroke-width="3" stroke-miterlimit="10"/>
</svg>
